<svg xmlns="http://www.w3.org/2000/svg" width="512" height="512">
    <path style="stroke:none;fill-rule:nonzero;fill:#fff;fill-opacity:1" d="m42.668 112.426 27.305-27.094 356.695 356.695-27.094 27.305-65.707-65.707C309.332 411.735 283.31 416 256 416c-106.668 0-197.762-66.348-234.668-160 14.723-37.547 38.188-70.613 68.055-96.852l-46.719-46.722M256 192c35.348 0 64 28.652 64 64 0 7.465-1.281 14.719-3.625 21.332l-81.707-81.707C241.281 193.281 248.535 192 256 192m0-96c106.668 0 197.762 66.348 234.668 160-17.496 44.375-47.148 82.773-85.336 110.719l-30.293-30.504c29.016-20.055 52.906-47.363 69.121-80.215-35.2-71.68-107.945-117.332-188.16-117.332-23.254 0-46.078 3.84-67.414 10.664l-32.852-32.64C186.454 103.464 220.375 96 256 96M67.84 256c35.2 71.68 107.945 117.332 188.16 117.332 14.719 0 29.227-1.492 42.668-4.48L250.028 320c-30.508-3.2-54.829-27.52-58.028-58.027l-72.535-72.746C98.348 207.359 80.64 229.973 67.84 256Zm0 0"/>
</svg>
